<svg version="1.0" xmlns="http://www.w3.org/2000/svg"
     width="420pt" height="420pt" viewBox="0 0 420 420" preserveAspectRatio="xMidYMid meet">
  <metadata>
    Created by potrace 1.14, written by Peter Selinger 2001-2017
  </metadata>
  <g transform="translate(0,420) scale(0.1,-0.1)" fill="#000000" stroke="none">
    <path d="M2289 3736 c-2 -3 -18 -7 -34 -11 -66 -12 -262 -46 -299 -51 -219
      -28 -408 -115 -544 -252 -37 -38 -64 -58 -67 -50 -3 12 0 63 4 63 2 0 4 8 6
      18 5 24 -8 21 -45 -9 -27 -24 -59 -71 -61 -91 0 -5 -5 -13 -10 -19 -8 -10 -21
      -91 -22 -141 -1 -23 -3 -25 -47 -28 -61 -5 -99 -17 -124 -40 -36 -34 -35 -58
      4 -52 21 4 36 -1 55 -18 25 -24 34 -55 16 -55 -14 0 -101 -84 -101 -97 0 -6
      -5 -13 -11 -15 -5 -2 -11 -10 -12 -18 -2 -8 -5 -19 -8 -25 -9 -15 -32 -86 -36
      -115 -12 -68 -11 -293 1 -370 8 -47 36 -151 64 -232 36 -106 46 -148 36 -148
      -7 0 -20 -15 -29 -33 -25 -53 -25 -92 0 -262 7 -48 31 -153 40 -177 6 -16 -1
      -18 -73 -18 -73 0 -81 -2 -106 -27 l-28 -27 7 -176 c3 -96 8 -195 10 -220 5
      -53 18 -322 18 -364 -1 -17 -10 -37 -25 -50 -13 -11 -32 -39 -43 -61 -11 -22
      -23 -42 -26 -45 -8 -7 -40 -90 -34 -90 2 0 -2 -18 -10 -40 -8 -22 -12 -40 -10
      -40 3 0 1 -10 -4 -23 -5 -13 -12 -39 -15 -58 -6 -36 -11 -59 -20 -99 -6 -24
      -10 -50 -22 -120 -3 -19 -8 -38 -11 -42 -2 -5 633 -8 1412 -8 l1415 0 -4 28
      c-67 394 -89 468 -166 562 -20 25 -36 53 -34 62 1 9 5 90 9 180 3 90 8 184 10
      208 2 34 16 308 17 340 1 42 -6 65 -28 85 -24 22 -36 25 -102 25 -67 0 -73 2
      -67 17 4 10 9 27 11 38 2 11 6 31 9 45 31 144 38 188 38 261 -1 69 -22 129
      -48 129 -16 0 -16 1 20 130 14 52 28 106 31 119 3 14 7 27 9 31 7 11 18 104
      18 155 0 184 -44 368 -129 540 -20 41 -40 75 -43 75 -3 0 -12 12 -19 28 -6 15
      -26 42 -42 61 -17 18 -30 37 -30 42 0 4 -11 19 -25 33 -13 13 -44 55 -67 93
      -24 37 -49 77 -56 88 -6 11 -15 27 -19 35 -14 34 -89 129 -144 182 -56 53
      -122 94 -167 103 -29 5 -62 -5 -62 -20 0 -18 -60 -80 -96 -98 -28 -14 -31 -14
      -41 2 -8 13 -5 31 13 76 23 56 25 85 6 85 -5 0 -11 -2 -13 -4z" />
  </g>
</svg>
